<?xml version="1.0" encoding="utf-8"?>
<!-- Generator: Adobe Illustrator 24.0.3, SVG Export Plug-In . SVG Version: 6.00 Build 0)  -->
<svg version="1.1" id="Layer_1" xmlns="http://www.w3.org/2000/svg" xmlns:xlink="http://www.w3.org/1999/xlink" x="0px" y="0px"
	 viewBox="0 0 166.9 192" style="enable-background:new 0 0 166.9 192;" xml:space="preserve">
<style type="text/css">
	.st0{fill-rule:evenodd;clip-rule:evenodd;}
	.st1{fill-rule:evenodd;clip-rule:evenodd;fill:#FCB030;}
	.st2{fill-rule:evenodd;clip-rule:evenodd;fill:#00A652;}
	.st3{fill-rule:evenodd;clip-rule:evenodd;fill:#0082C7;}
	.st4{fill-rule:evenodd;clip-rule:evenodd;fill:#E8384F;}
	.st5{fill-rule:evenodd;clip-rule:evenodd;fill:#D6C278;}
</style>
<g>
	<path class="st0" d="M8.2,127.2c-0.6,0.9-1.7,1.4-2.6,1.9c-1.1,0.5-2.1,1-3,1.8v-8.4h2.5c1.4,0,2.9,0.4,3.4,1.8
		C8.8,125.3,8.8,126.4,8.2,127.2 M8.4,120.8c-1.2-0.6-2.6-0.7-3.9-0.7H0v16.7h2.6c0-0.9-0.1-1.9,0.3-2.8c0.7-1.4,2.2-2.1,3.5-2.7
		c1.4-0.7,3-1.4,4-2.7c0.8-1.2,1.1-2.8,0.8-4.2C10.9,122.8,9.8,121.5,8.4,120.8 M27.4,130.6c-1.5-1.5-3.9-2.1-6-1.8v-2.7
		c0-0.5,0-1,0.1-1.5c0.2-0.9,1-1.7,1.9-2c1-0.3,2.1-0.2,2.9,0.4c0.8,0.6,1.2,1.6,1.2,2.6c0,0.8,0,1.6,0,2.4v2.8
		C27.5,130.7,27.5,130.6,27.4,130.6 M27.4,120.6c-2.2-1.3-5.5-0.9-7.2,1.1c-0.8,0.9-1.3,2.2-1.4,3.4c0,0.3,0,11.7,0,11.7h2.6v-5.5
		c1.5-0.2,3.2,0,4.5,0.9c1.1,0.8,1.6,2.1,1.6,3.5v1.2h2.6v-11.2C30.1,123.6,29.3,121.7,27.4,120.6 M43.8,122.6
		c1.7,0,3.3,0.8,3.5,2.6c0.1,0.9-0.1,1.7-0.7,2.4c-0.6,0.7-1.6,1.2-2.4,1.6c-1,0.5-2.1,1-2.9,1.8v-8.4H43.8z M47.8,130.6
		c-0.3-0.2-0.6-0.3-0.9-0.4c0.8-0.5,1.6-1,2.2-1.8c0.5-0.7,0.8-1.5,0.9-2.4c0.2-1.8-0.4-3.6-1.9-4.7c-2-1.5-4.5-1.3-6.9-1.3h-2.5
		v16.7h2.6c0-0.5,0-1,0-1.5c0-1.1,0.5-2.2,1.5-2.8c1-0.6,2.2-0.6,3.2-0.2c1,0.5,1.7,1.4,1.8,2.5c0.1,0.6,0,1.3,0,1.9h2.6
		c0-0.9,0-1.9-0.2-2.8C50.1,132.6,49.1,131.4,47.8,130.6z M58.6,122.5c0.8-0.2,1.7-0.3,2.6-0.4v-2h-2.6V122.5z M58.6,124v12.9h2.6
		v-13.3C60.3,123.6,59.5,123.7,58.6,124 M78.5,128.8c-0.9-0.7-2-1.1-3.1-1.6c-1-0.4-2.2-0.8-2.9-1.6c-0.7-0.8-0.5-2,0.2-2.7
		c0.7-0.7,1.9-0.9,2.8-0.6c1.1,0.3,1.7,1.3,1.7,2.4h2.6c0-1.2-0.4-2.4-1.2-3.3c-0.8-0.9-1.9-1.4-3.1-1.5c-1.2-0.2-2.5,0-3.6,0.6
		c-1,0.6-1.9,1.5-2.2,2.6c-0.3,1.1-0.3,2.4,0.3,3.4c0.6,1.1,1.7,1.8,2.9,2.3c1.2,0.5,2.7,0.8,3.8,1.6c0.4,0.3,0.8,0.7,0.9,1.3
		c0.1,0.5,0.1,1.1-0.2,1.6c-0.6,1.2-2.1,1.6-3.3,1.3c-1.4-0.2-2.4-1.4-2.4-2.8h-2.5c0,1.4,0.4,2.6,1.4,3.6c1,1,2.3,1.5,3.6,1.6
		c1.4,0.1,2.9-0.2,4-1c1.1-0.8,1.8-1.9,1.9-3.2C80.2,131.3,79.7,129.8,78.5,128.8 M102.7,129.2c0.6-0.7,1.1-1.5,1.5-2.3
		c0.4-0.8,0.5-1.7,0.4-2.6c-0.2-1.7-1.4-3.1-2.9-3.8c-1.6-0.7-3.5-0.7-5.1,0.1c-1.6,0.8-2.7,2.3-2.8,4.1c-0.1,1.8,0.7,3.4,2.2,4.5
		l1.5-1.9c-0.5-0.5-0.9-1.1-1.1-1.8c-0.1-0.7,0-1.4,0.4-2c0.8-1.1,2.5-1.5,3.8-0.8c0.6,0.3,1.1,0.9,1.4,1.5c0.2,0.7,0.1,1.5-0.2,2.1
		c-0.3,0.7-0.8,1.2-1.2,1.8l-5.2,6.5l-1.9,2.3h11.7v-2.4h-6.7L102.7,129.2L102.7,129.2z M126.5,130.9c-1,2.4-3.4,3.9-6,3.7
		c-2.5-0.1-4.7-1.9-5.4-4.3c-0.7-2.5,0.1-5.2,2.2-6.8c2.1-1.6,4.9-1.6,7.1-0.2C126.7,125,127.6,128.2,126.5,130.9 M127.1,122.4
		c-2.6-2.5-6.6-3.2-9.9-1.7c-3.3,1.6-5.3,5-5,8.7c0.3,3.6,3,6.6,6.4,7.5c3.5,0.9,7.3-0.4,9.4-3.4c2.1-3,2-7.2-0.2-10.1
		C127.6,123,127.4,122.7,127.1,122.4 M146.1,129.2c0.6-0.7,1.1-1.5,1.5-2.3c0.4-0.8,0.5-1.7,0.4-2.6c-0.2-1.7-1.4-3.1-2.9-3.8
		c-1.6-0.7-3.5-0.7-5.1,0.1c-1.6,0.8-2.7,2.3-2.8,4.1c-0.1,1.8,0.7,3.4,2.2,4.5l1.5-1.9c-0.5-0.5-0.9-1.1-1.1-1.8
		c-0.1-0.7,0-1.4,0.4-2c0.8-1.1,2.5-1.5,3.8-0.8c0.6,0.3,1.1,0.9,1.4,1.5c0.2,0.7,0.1,1.5-0.2,2.1c-0.3,0.7-0.8,1.2-1.2,1.8
		l-5.2,6.5l-1.9,2.3h11.7v-2.4h-6.7L146.1,129.2L146.1,129.2z M164.4,124.6v5.7c-1.2-0.9-2.8-1.1-4.1-1.9c-1.1-0.7-1.5-1.8-1.5-3.1
		c0-1.2,0-5.1,0-5.1h-2.6v5.2c0,1.8,0.4,3.5,1.9,4.7c0.9,0.7,2,1.1,3,1.5c1,0.3,2,0.8,2.6,1.6c0.5,0.6,0.6,1.4,0.6,2.2v1.6h2.5
		v-12.2C166.9,124.6,164.4,124.6,164.4,124.6z"/>
	<path class="st1" d="M68.6,166.7c-6.3-0.1-11.5,4.9-11.6,11.2s4.9,11.5,11.2,11.6c0.2,0,0.3,0,0.5,0c6.3-0.1,11.3-5.3,11.2-11.6
		C79.7,171.8,74.7,166.8,68.6,166.7 M82.3,178.1c0.1,7.6-6,13.8-13.5,13.9c-7.6,0.1-13.8-6-13.9-13.5c0-0.1,0-0.2,0-0.4
		c0.1-7.6,6.3-13.6,13.9-13.5C76.2,164.7,82.2,170.7,82.3,178.1"/>
	<path class="st2" d="M98.3,166.7c-6.3,0-11.4,5.1-11.4,11.4c0,6.3,5.1,11.4,11.4,11.4c6.3,0.1,11.5-4.9,11.6-11.2
		c0.1-6.3-4.9-11.5-11.2-11.6C98.6,166.7,98.4,166.7,98.3,166.7 M112,178.1c0,7.6-6.1,13.7-13.7,13.7c-7.6,0-13.7-6.1-13.7-13.7
		c0-7.6,6.1-13.7,13.7-13.7C105.9,164.4,112,170.5,112,178.1"/>
	<path class="st3" d="M53.8,151.9c-7.6,0-13.7,6.1-13.7,13.7s6.1,13.7,13.7,13.7c0.4,0,0.8,0,1.2-0.1c0-0.4,0-0.7,0-1.1
		c0-0.4,0-0.8,0.1-1.2c-0.4,0-0.8,0.1-1.2,0.1c-6.3,0-11.4-5.1-11.4-11.4c0-6.3,5.1-11.4,11.4-11.4l0,0c6.3,0,11.4,5.1,11.4,11.4
		c0,4.9-3.2,9.3-7.9,10.9c-0.1,0.8-0.2,1.6-0.1,2.4c6-1.6,10.2-7,10.3-13.3C67.5,158,61.3,151.9,53.8,151.9"/>
	<path class="st4" d="M113.1,151.9c-7.1,0-13.1,5.5-13.7,12.6c0.8,0.1,1.5,0.2,2.3,0.4c0.4-6.3,5.8-11.1,12.1-10.7
		c6,0.4,10.7,5.4,10.7,11.4c1,6.2-3.3,12.1-9.6,13c-6.2,1-12.1-3.3-13-9.6c-0.1-0.6-0.1-1.2-0.1-1.7c-0.8-0.2-1.6-0.4-2.4-0.5
		c0.7,7.5,7.3,13.1,14.9,12.4c7.5-0.7,13.1-7.3,12.4-14.9C126.2,157.3,120.2,151.9,113.1,151.9"/>
	<path class="st0" d="M83.4,151.9c-7.1,0-13.1,5.5-13.7,12.6c0.8,0.1,1.5,0.2,2.3,0.4c0.4-6.3,5.8-11.1,12.1-10.7
		c6.3,0.4,11.1,5.8,10.7,12.1c-0.3,4.7-3.4,8.7-7.8,10.2c-0.1,0.8-0.2,1.6-0.1,2.4c7.3-1.9,11.7-9.4,9.8-16.7
		C95.2,156.1,89.7,151.9,83.4,151.9"/>
	<path class="st0" d="M84.6,178.1c0-0.4,0-0.8,0.1-1.2c-6.1,0.6-11.6-3.6-12.5-9.6c-0.8-0.2-1.6-0.4-2.4-0.5
		c0.7,7.5,7.3,13.1,14.8,12.4C84.6,178.8,84.6,178.5,84.6,178.1"/>
	<path class="st5" d="M89.3,91.6c-1.4-0.5-3.8-0.6-5.9,1.1c-2-1.7-4.4-1.6-5.9-1.1c-1.2,0.4-2.1,0.7-3.9,0.7
		c2.6,5.4,9.1,7.7,14.5,5.1c2.2-1.1,4-2.9,5.1-5.1C91.5,92.3,90.5,92,89.3,91.6"/>
	<path class="st5" d="M83.4,0C53.9,0,30,23.9,30,53.4c0,25.3,17.6,46.5,41.2,52c-18.8-10-26.4-33-17.4-52.3
		c1.5,7.8,6.6,14.5,13.8,17.9C58,48.4,65.1,21.8,85.1,7.1c-3.9,13.4,2.1,25.7,15,35c14.8,10.6,15.4,32.3,2.4,44
		c5.3-1.2,10.1-4.2,13.6-8.4c-2.2,11.5-9.4,21.8-20.4,27.7c23.6-5.5,41.2-26.7,41.2-52C136.8,23.9,112.9,0,83.4,0 M129.4,101.4
		c-0.8,0-1.4,0.3-1.6,0.9c-0.3-0.5-0.9-0.9-1.6-0.9h-0.3v3.9h0.5v-3.5h0c0.7,0,1.2,0.5,1.2,1.3v1h0.5v-1c0-0.8,0.5-1.3,1.2-1.3h0
		v3.5h0.5v-3.9C129.6,101.4,129.4,101.4,129.4,101.4z M122.4,101.9h1v3.5h0.5v-3.5h1v-0.5h-2.5V101.9z"/>
</g>
</svg>
